<?xml version="1.0" standalone="no"?>
<!DOCTYPE svg PUBLIC "-//W3C//DTD SVG 20010904//EN"
 "http://www.w3.org/TR/2001/REC-SVG-20010904/DTD/svg10.dtd">
<svg version="1.0" xmlns="http://www.w3.org/2000/svg"
 width="700.000000pt" height="700.000000pt" viewBox="0 0 700.000000 700.000000"
 preserveAspectRatio="xMidYMid meet">
<metadata>
Created by potrace 1.11, written by Peter Selinger 2001-2013
</metadata>
<g transform="translate(0.000000,700.000000) scale(0.100000,-0.100000)"
fill="#000000" stroke="none">
<path d="M5185 6988 c-179 -20 -398 -85 -556 -164 -201 -101 -428 -293 -571
-484 -89 -119 -201 -336 -242 -467 -59 -192 -70 -271 -70 -508 0 -190 3 -234
22 -322 112 -513 439 -932 895 -1148 796 -377 1743 -62 2150 715 241 460 247
1021 17 1481 -170 339 -422 587 -760 748 -277 132 -582 184 -885 149z"/>
<path d="M2650 1635 c0 -696 3 -1265 6 -1265 15 0 148 128 212 203 187 221
307 468 364 750 31 151 33 450 4 602 -53 286 -193 573 -383 787 -62 69 -187
188 -198 188 -3 0 -5 -569 -5 -1265z"/>
</g>
</svg>
