<svg xmlns="http://www.w3.org/2000/svg" xmlns:xlink="http://www.w3.org/1999/xlink"><symbol id="icon-quality" viewBox="0 0 60 60">
<path d="M24 21.6995L38.9409 30L24 38.3005L24 21.6995Z" stroke="#319559" stroke-width="2"/>
<path fill-rule="evenodd" clip-rule="evenodd" d="M39.969 9.26687L46.2911 20.217C46.4094 20.4136 46.5242 20.6125 46.6355 20.8136L49.63 26.0001L51.7124 22.3933C49.6895 16.6189 45.4282 11.8966 39.969 9.26687ZM34.2698 7.39558C32.8862 7.13585 31.459 7 30 7C25.1907 7 20.7261 8.47611 17.0346 11H29.9999H36.3508L34.2698 7.39558ZM52.9362 28.2736L46.6318 39.1931C46.5229 39.3897 46.4106 39.5842 46.295 39.7765L43.2792 45H47.4361C50.9037 40.9729 53 35.7312 53 30C53 29.4193 52.9785 28.8435 52.9362 28.2736ZM42.9654 49H29.9999H23.6493L25.7303 52.6044C27.1139 52.8642 28.5411 53 30 53C34.8093 53 39.2739 51.5239 42.9654 49ZM20.0312 50.7332L13.7158 39.7947C13.5927 39.5904 13.4733 39.3836 13.3577 39.1744L10.3702 34L8.28773 37.607C10.3107 43.3813 14.572 48.1036 20.0312 50.7332ZM7.06385 31.7268L13.3586 20.824C13.4736 20.6159 13.5924 20.4101 13.7149 20.2068L16.7211 15H12.5639C9.09626 19.0271 7 24.2688 7 30C7 30.5809 7.02153 31.1567 7.06385 31.7268Z" fill="#7981FB"/>
</symbol><symbol id="icon-slow-motion" viewBox="0 0 60 60">
<circle cx="12" cy="30" r="11" stroke="#D6EADE" stroke-width="2"/>
<circle cx="22" cy="30" r="13" fill="white" fill-opacity="0.25" stroke="#ADD5BD" stroke-width="2"/>
<circle cx="32" cy="30" r="15" fill="white" fill-opacity="0.5" stroke="#83BF9B" stroke-width="2"/>
<circle cx="42" cy="30" r="17" fill="white" fill-opacity="0.75" stroke="#319559" stroke-width="2"/>
</symbol><symbol id="icon-stabilization" viewBox="0 0 60 60">
<mask id="path-1-inside-1" fill="white">
<path d="M3 42C3 50.2843 9.71573 57 18 57V59C8.61116 59 1 51.3888 1 42H3Z"/>
<path d="M57 18C57 9.71573 50.2843 3 42 3V1C51.3888 1 59 8.61116 59 18H57Z"/>
<path d="M7 42C7 48.0751 11.9249 53 18 53V55C10.8203 55 5 49.1797 5 42H7Z"/>
<path d="M53 18C53 11.9249 48.0751 7 42 7V5C49.1797 5 55 10.8203 55 18H53Z"/>
<path d="M42 11C45.866 11 49 14.134 49 18H51C51 13.0294 46.9706 9 42 9V11Z"/>
<path d="M18 49C14.134 49 11 45.866 11 42H9C9 46.9706 13.0294 51 18 51V49Z"/>
</mask>
<path d="M18 57H20V55H18V57ZM3 42H5V40H3V42ZM42 3H40V5H42V3ZM57 18H55V20H57V18ZM18 59V61H20V59H18ZM1 42V40H-1V42H1ZM42 1V-1H40V1H42ZM59 18V20H61V18H59ZM18 53H20V51H18V53ZM7 42H9V40H7V42ZM42 7H40V9H42V7ZM53 18H51V20H53V18ZM18 55V57H20V55H18ZM5 42V40H3V42H5ZM42 5V3H40V5H42ZM55 18V20H57V18H55ZM49 18H47V20H49V18ZM42 11H40V13H42V11ZM11 42H13V40H11V42ZM18 49H20V47H18V49ZM51 18V20H53V18H51ZM42 9V7H40V9H42ZM9 42V40H7V42H9ZM18 51V53H20V51H18ZM18 55C10.8203 55 5 49.1797 5 42H1C1 51.3888 8.61116 59 18 59V55ZM42 5C49.1797 5 55 10.8203 55 18H59C59 8.61116 51.3888 1 42 1V5ZM18 57C9.71573 57 3 50.2843 3 42H-1C-1 52.4934 7.50659 61 18 61V57ZM42 3C50.2843 3 57 9.71573 57 18H61C61 7.50659 52.4934 -1 42 -1V3ZM18 51C13.0294 51 9 46.9706 9 42H5C5 49.1797 10.8203 55 18 55V51ZM42 9C46.9706 9 51 13.0294 51 18H55C55 10.8203 49.1797 5 42 5V9ZM18 53C11.9249 53 7 48.0751 7 42H3C3 50.2843 9.71573 57 18 57V53ZM42 7C48.0751 7 53 11.9249 53 18H57C57 9.71573 50.2843 3 42 3V7ZM51 18C51 13.0294 46.9706 9 42 9V13C44.7614 13 47 15.2386 47 18H51ZM9 42C9 46.9706 13.0294 51 18 51V47C15.2386 47 13 44.7614 13 42H9ZM53 18C53 11.9249 48.0751 7 42 7V11C45.866 11 49 14.134 49 18H53ZM7 42C7 48.0751 11.9249 53 18 53V49C14.134 49 11 45.866 11 42H7ZM11 40H9V44H11V40ZM7 40H5V44H7V40ZM3 40H1V44H3V40ZM16 49V51H20V49H16ZM16 53V55H20V53H16ZM16 57V59H20V57H16ZM49 20H51V16H49V20ZM53 20H55V16H53V20ZM57 20H59V16H57V20ZM44 11V9H40V11H44ZM44 7V5H40V7H44ZM44 3V1H40V3H44Z" fill="#5FBAFF" mask="url(#path-1-inside-1)"/>
<path d="M16 20C16 17.7909 17.7909 16 20 16H40C42.2091 16 44 17.7909 44 20V40C44 42.2091 42.2091 44 40 44H20C17.7909 44 16 42.2091 16 40V20Z" stroke="#E83D43" stroke-width="2"/>
<circle cx="30" cy="30" r="5" stroke="#E83D43" stroke-width="2"/>
<circle cx="37.5" cy="22.5" r="1.5" fill="#E83D43"/>
</symbol></svg>